<svg xmlns="http://www.w3.org/2000/svg" xmlns:xlink="http://www.w3.org/1999/xlink" width="19.996" height="20" viewBox="0 0 19.996 20">
  <defs>
    <linearGradient id="linear-gradient" x1="0.083" y1="0.93" x2="0.959" y2="0.08" gradientUnits="objectBoundingBox">
      <stop offset="0" stop-color="#fd5"/>
      <stop offset="0.5" stop-color="#ff543e"/>
      <stop offset="1" stop-color="#c837ab"/>
    </linearGradient>
  </defs>
  <g id="instagram" transform="translate(0.07 0.038)">
    <path id="Path_1849" data-name="Path 1849" d="M1.234,1.35C-.333,2.978-.012,4.706-.012,9.959c0,4.362-.761,8.734,3.222,9.763a94.912,94.912,0,0,0,13.505,0A4.283,4.283,0,0,0,19.907,15.6c.026-.327.026-10.954,0-11.288A4.289,4.289,0,0,0,16.146.085a17.937,17.937,0,0,0-2.94-.091C4.754,0,2.9-.379,1.234,1.35Z" fill="url(#linear-gradient)"/>
    <path id="Path_1850" data-name="Path 1850" d="M10.5,3.138c-3.017,0-5.881-.268-6.975,2.54-.452,1.16-.386,2.666-.386,4.823a15.365,15.365,0,0,0,.386,4.822c1.092,2.81,3.979,2.541,6.974,2.541,2.889,0,5.867.3,6.974-2.541.453-1.171.386-2.655.386-4.822,0-2.876.159-4.733-1.236-6.127C15.208,2.961,13.3,3.138,10.494,3.138Zm-.66,1.327c6.292-.01,7.093-.709,6.651,9.008-.157,3.437-2.774,3.06-5.991,3.06-5.865,0-6.034-.168-6.034-6.036,0-5.936.465-6.029,5.373-6.034Zm4.589,1.222a.883.883,0,1,0,.883.883A.883.883,0,0,0,14.427,5.686ZM10.5,6.719A3.78,3.78,0,1,0,14.277,10.5,3.781,3.781,0,0,0,10.5,6.719Zm0,1.327a2.454,2.454,0,0,1,0,4.908A2.454,2.454,0,0,1,10.5,8.046Z" transform="translate(-0.542 -0.536)" fill="#fff"/>
  </g>
</svg>
