<?xml version="1.0" encoding="UTF-8" standalone="no"?><!DOCTYPE svg PUBLIC "-//W3C//DTD SVG 1.1//EN" "http://www.w3.org/Graphics/SVG/1.1/DTD/svg11.dtd"><svg width="211px" height="45px" viewBox="0 0 296 64" version="1.1" xmlns="http://www.w3.org/2000/svg" xmlns:xlink="http://www.w3.org/1999/xlink" xml:space="preserve" xmlns:serif="http://www.serif.com/" style="fill-rule:evenodd;clip-rule:evenodd;stroke-miterlimit:10;"><rect id="Page-1" serif:id="Page 1" x="-53.76" y="-71.04" width="1920.06" height="6496.4" style="fill:none;"/><clipPath id="_clip1"><rect x="-53.76" y="-71.04" width="1920.06" height="6496.4"/></clipPath><g clip-path="url(#_clip1)"><g id="Layer-2" serif:id="Layer 2"><path d="M148.798,8.114c-2.012,0 -3.998,0.508 -5.161,0.99l0.877,2.339c0.982,-0.406 2.578,-0.813 3.897,-0.813c1.599,0 2.603,0.533 2.603,1.955l0,0.713c-4.205,0.229 -8.153,0.965 -8.153,4.7c0,2.796 2.091,4.421 6.27,4.421l5.213,0l0,-9.427c0,-3.506 -1.986,-4.878 -5.546,-4.878m0.232,11.841c-1.833,0 -2.864,-0.736 -2.864,-2.034c0,-2.058 2.271,-2.286 4.848,-2.414l0,4.448l-1.984,0Z" style="fill:#00abed;fill-rule:nonzero;"/><path d="M245.768,35.218c-2.912,0 -5.785,0.736 -7.468,1.434l1.269,3.385c1.419,-0.59 3.732,-1.178 5.64,-1.178c2.314,0 3.771,0.773 3.771,2.829l0,1.033c-6.087,0.33 -11.803,1.398 -11.803,6.805c0,4.046 3.026,6.399 9.077,6.399l7.543,0l0,-13.646c0,-5.077 -2.874,-7.061 -8.029,-7.061m0.337,17.141c-2.652,0 -4.144,-1.067 -4.144,-2.945c0,-2.979 3.286,-3.311 7.019,-3.494l0,6.439l-2.875,0Z" style="fill:#00abed;fill-rule:nonzero;"/><path d="M90.597,55.925l-1.907,-16.979c-0.187,-1.657 -0.262,-3.607 -0.262,-3.607l-0.074,0c0,0 -0.375,1.915 -0.898,3.607l-5.123,16.979l-3.365,0l-5.159,-16.979c-0.524,-1.692 -0.897,-3.607 -0.897,-3.607l-0.075,0c0,0 -0.076,1.95 -0.264,3.607l-1.905,16.979l-4.9,0l3.368,-26.663l5.981,0l4.71,15.578c0.449,1.546 0.786,3.423 0.786,3.423l0.076,0c0,0 0.334,-1.877 0.785,-3.423l4.673,-15.578l5.982,0l3.366,26.663l-4.898,0Z" style="fill:#00abed;fill-rule:nonzero;"/><path d="M102.624,46.331c-0.028,0.682 0.111,1.749 0.111,1.749c0.449,2.909 2.618,4.347 5.571,4.347c2.021,0 4.188,-0.518 5.609,-1.253l1.459,3.757c-1.683,0.846 -4.525,1.436 -7.442,1.436c-6.656,0 -10.169,-4.274 -10.169,-10.387c0,-6.077 3.478,-10.349 9.347,-10.349c5.573,0 8.676,3.61 8.676,9.024c0,0.551 0,1.105 -0.077,1.693l-13.085,-0.017Zm-0.14,-2.562l8.365,0c0,-2.981 -1.495,-4.494 -3.851,-4.494c-2.351,0 -4.085,1.505 -4.504,4.431l-0.01,0.063Z" style="fill:#00abed;fill-rule:nonzero;"/><path d="M125.678,56.218c-3.889,0 -5.721,-2.098 -5.721,-6.26l0,-10.128l-2.577,0l0,-3.756l2.577,0l0,-4.419l5.011,-1.437l0,5.856l3.776,0l0,3.756l-3.776,0l0,9.796c0,1.621 1.008,2.174 2.319,2.174c0.523,0 1.121,-0.149 1.457,-0.295l0,4.159c-0.598,0.296 -1.833,0.554 -3.066,0.554" style="fill:#00abed;fill-rule:nonzero;"/><path d="M141.555,39.978c-0.634,-0.184 -1.457,-0.295 -2.28,-0.295c-0.935,0 -1.905,0.148 -2.54,0.406l0,15.835l-5.086,0l0,-18.854c2.095,-0.811 4.973,-1.439 8.225,-1.439c1.047,0 1.944,0.074 2.618,0.186l-0.937,4.161Z" style="fill:#00abed;fill-rule:nonzero;"/><path d="M152.536,56.367c-5.872,0 -9.123,-4.458 -9.123,-10.387c0,-5.929 3.251,-10.349 9.123,-10.349c5.873,0 9.122,4.42 9.122,10.349c0,5.929 -3.249,10.387 -9.122,10.387m0,-16.795c-2.693,0 -4.038,2.394 -4.038,6.373c0,3.976 1.345,6.334 4.038,6.334c2.693,0 4.037,-2.358 4.037,-6.334c0,-3.979 -1.344,-6.373 -4.037,-6.373" style="fill:#00abed;fill-rule:nonzero;"/><path d="M172.79,56.144c-1.084,0 -2.284,-0.22 -2.917,-0.442l0,8.138l-5.087,0l0,-26.771c1.497,-0.774 4.338,-1.438 7.366,-1.438c6.507,0 10.061,3.83 10.061,10.276c0,6.112 -3.252,10.237 -9.423,10.237m-0.562,-16.61c-0.933,0 -1.906,0.185 -2.355,0.407l0,12.007c0.409,0.182 1.497,0.368 2.392,0.368c3.179,0 4.825,-2.653 4.825,-6.409c0,-4.014 -1.723,-6.373 -4.862,-6.373" style="fill:#00abed;fill-rule:nonzero;"/><path d="M193.75,56.367c-5.868,0 -9.121,-4.458 -9.121,-10.387c0,-5.929 3.253,-10.349 9.121,-10.349c5.872,0 9.121,4.42 9.121,10.349c0,5.929 -3.249,10.387 -9.121,10.387m0,-16.795c-2.692,0 -4.04,2.394 -4.04,6.373c0,3.976 1.348,6.334 4.04,6.334c2.692,0 4.037,-2.358 4.037,-6.334c0,-3.979 -1.345,-6.373 -4.037,-6.373" style="fill:#00abed;fill-rule:nonzero;"/><rect x="206.079" y="27.014" width="5.083" height="28.911" style="fill:#00abed;"/><path d="M217.692,32.908c-1.607,0 -2.915,-1.217 -2.915,-2.727c0,-1.508 1.308,-2.688 2.915,-2.688c1.61,0 2.917,1.18 2.917,2.688c0,1.51 -1.307,2.727 -2.917,2.727m-2.541,3.167l5.083,0l0,19.849l-5.083,0l0,-19.849Z" style="fill:#00abed;fill-rule:nonzero;"/><path d="M231.214,56.218c-3.888,0 -5.722,-2.098 -5.722,-6.26l0,-10.128l-2.581,0l0,-3.756l2.581,0l0,-4.419l5.013,-1.437l0,5.856l3.776,0l0,3.756l-3.776,0l0,9.796c0,1.621 1.01,2.174 2.319,2.174c0.523,0 1.12,-0.149 1.457,-0.295l0,4.159c-0.597,0.296 -1.832,0.554 -3.067,0.554" style="fill:#00abed;fill-rule:nonzero;"/><path d="M269.263,55.925l0,-13.074c0,-1.99 -1.236,-3.204 -3.554,-3.204c-1.199,0 -2.356,0.22 -3.03,0.48l0,15.798l-5.084,0l0,-18.855c2.132,-0.849 4.71,-1.438 8.04,-1.438c5.983,0 8.749,2.431 8.749,6.705l0,13.588l-5.121,0Z" style="fill:#00abed;fill-rule:nonzero;"/><path d="M286.635,56.367c-5.871,0 -9.123,-4.458 -9.123,-10.387c0,-5.929 3.252,-10.349 9.123,-10.349c5.869,0 9.124,4.42 9.124,10.349c0,5.929 -3.255,10.387 -9.124,10.387m0,-16.795c-2.691,0 -4.038,2.394 -4.038,6.373c0,3.976 1.347,6.334 4.038,6.334c2.693,0 4.038,-2.358 4.038,-6.334c0,-3.979 -1.345,-6.373 -4.038,-6.373" style="fill:#00abed;fill-rule:nonzero;"/><path d="M78.508,22.419l0,-7.885l-5.753,0l0,7.885l-3.653,0l0,-18.474l3.653,0l0,7.63l5.753,0l0,-7.63l3.653,0l0,18.474l-3.653,0Z" style="fill:#00abed;fill-rule:nonzero;"/><path d="M91.307,22.724c-4.067,0 -6.32,-3.086 -6.32,-7.194c0,-4.108 2.253,-7.171 6.32,-7.171c4.069,0 6.323,3.063 6.323,7.171c0,4.108 -2.254,7.194 -6.323,7.194m0,-11.635c-1.864,0 -2.798,1.659 -2.798,4.414c0,2.758 0.934,4.391 2.798,4.391c1.867,0 2.8,-1.633 2.8,-4.391c0,-2.755 -0.933,-4.414 -2.8,-4.414" style="fill:#00abed;fill-rule:nonzero;"/><path d="M104.032,22.724c-1.737,0 -3.473,-0.459 -4.511,-0.995l1.142,-2.653c0.7,0.435 2.253,0.894 3.265,0.894c1.269,0 2.099,-0.588 2.099,-1.507c0,-1.022 -0.907,-1.454 -2.152,-1.887c-1.763,-0.639 -3.99,-1.456 -3.99,-4.16c0,-2.423 1.865,-4.057 5.129,-4.057c1.788,0 3.239,0.434 4.303,0.995l-1.089,2.373c-0.595,-0.357 -1.839,-0.791 -2.773,-0.791c-1.242,0 -1.967,0.614 -1.967,1.43c0,1.044 0.905,1.455 2.123,1.888c1.838,0.662 4.093,1.428 4.093,4.209c0,2.577 -1.942,4.261 -5.672,4.261" style="fill:#00abed;fill-rule:nonzero;"/><path d="M117.842,22.57c-0.751,0 -1.581,-0.151 -2.021,-0.305l0,5.64l-3.524,0l0,-18.55c1.036,-0.535 3.005,-0.995 5.106,-0.995c4.507,0 6.968,2.652 6.968,7.119c0,4.236 -2.253,7.091 -6.529,7.091m-0.391,-11.507c-0.645,0 -1.317,0.13 -1.63,0.284l0,8.317c0.285,0.128 1.037,0.254 1.659,0.254c2.202,0 3.341,-1.837 3.341,-4.439c0,-2.782 -1.19,-4.416 -3.37,-4.416" style="fill:#00abed;fill-rule:nonzero;"/><path d="M128.854,6.471c-1.112,0 -2.021,-0.843 -2.021,-1.887c0,-1.047 0.909,-1.864 2.021,-1.864c1.116,0 2.021,0.817 2.021,1.864c0,1.044 -0.905,1.887 -2.021,1.887m-1.761,2.195l3.524,0l0,13.753l-3.524,0l0,-13.753Z" style="fill:#00abed;fill-rule:nonzero;"/><path d="M138.728,22.623c-2.696,0 -3.966,-1.456 -3.966,-4.337l0,-7.018l-1.787,0l0,-2.602l1.787,0l0,-3.063l3.473,-0.995l0,4.058l2.617,0l0,2.602l-2.617,0l0,6.787c0,1.123 0.7,1.506 1.605,1.506c0.363,0 0.779,-0.104 1.012,-0.205l0,2.883c-0.415,0.204 -1.27,0.384 -2.124,0.384" style="fill:#00abed;fill-rule:nonzero;"/><rect x="157.561" y="2.389" width="3.522" height="20.03" style="fill:#00abed;"/><path d="M41.21,16.997c-4.41,0 -7.581,2.215 -10.103,4.115c1.645,1.862 2.695,4.385 2.895,7.634c0.912,-1.478 2.391,-2.473 4.398,-2.473c3.587,0 5.481,3.163 5.481,6.611l0,17.356c0,3.164 2.251,5.695 5.484,5.695c3.232,0 5.483,-2.531 5.483,-5.695l0,-20.313c0,-8.996 -6.044,-12.93 -13.638,-12.93" style="fill:#006fb9;fill-rule:nonzero;"/><path d="M34.003,28.747c-0.2,-3.249 -1.251,-5.773 -2.895,-7.634c-2.488,-2.814 -6.337,-4.115 -10.699,-4.115l-9.424,0l0.006,-2.086l0,-9.202c0,-3.163 -2.249,-5.689 -5.481,-5.689c-3.232,0 -5.482,2.526 -5.482,5.689l0,44.531c0,3.163 2.25,5.695 5.482,5.695c3.232,0 5.481,-2.532 5.481,-5.695l-0.006,-22.333l6.05,0c3.797,0 6.046,2.811 6.046,6.607l0,15.726c0,2.975 1.99,5.388 4.92,5.665c0.183,0.015 0.373,0.03 0.562,0.03c3.232,0 5.481,-2.532 5.481,-5.695l0,-20.314c0,-0.404 -0.015,-0.797 -0.041,-1.18" style="fill:#00abed;fill-rule:nonzero;"/><path d="M148.798,8.114c-2.012,0 -3.998,0.508 -5.161,0.99l0.877,2.339c0.982,-0.406 2.578,-0.813 3.897,-0.813c1.599,0 2.603,0.533 2.603,1.955l0,0.713c-4.205,0.229 -8.153,0.965 -8.153,4.7c0,2.796 2.091,4.421 6.27,4.421l5.213,0l0,-9.427c0,-3.506 -1.986,-4.878 -5.546,-4.878m0.232,11.841c-1.833,0 -2.864,-0.736 -2.864,-2.034c0,-2.058 2.271,-2.286 4.848,-2.414l0,4.448l-1.984,0Z" style="fill:#00abed;fill-rule:nonzero;"/><path d="M245.768,35.218c-2.912,0 -5.785,0.736 -7.468,1.434l1.269,3.385c1.419,-0.59 3.732,-1.178 5.64,-1.178c2.314,0 3.771,0.773 3.771,2.829l0,1.033c-6.087,0.33 -11.803,1.398 -11.803,6.805c0,4.046 3.026,6.399 9.077,6.399l7.543,0l0,-13.646c0,-5.077 -2.874,-7.061 -8.029,-7.061m0.337,17.141c-2.652,0 -4.144,-1.067 -4.144,-2.945c0,-2.979 3.286,-3.311 7.019,-3.494l0,6.439l-2.875,0Z" style="fill:#00abed;fill-rule:nonzero;"/><path d="M90.597,55.925l-1.907,-16.979c-0.187,-1.657 -0.262,-3.607 -0.262,-3.607l-0.074,0c0,0 -0.375,1.915 -0.898,3.607l-5.123,16.979l-3.365,0l-5.159,-16.979c-0.524,-1.692 -0.897,-3.607 -0.897,-3.607l-0.075,0c0,0 -0.076,1.95 -0.264,3.607l-1.905,16.979l-4.9,0l3.368,-26.663l5.981,0l4.71,15.578c0.449,1.546 0.786,3.423 0.786,3.423l0.076,0c0,0 0.334,-1.877 0.785,-3.423l4.673,-15.578l5.982,0l3.366,26.663l-4.898,0Z" style="fill:#00abed;fill-rule:nonzero;"/><path d="M102.624,46.331c-0.028,0.682 0.111,1.749 0.111,1.749c0.449,2.909 2.618,4.347 5.571,4.347c2.021,0 4.188,-0.518 5.609,-1.253l1.459,3.757c-1.683,0.846 -4.525,1.436 -7.442,1.436c-6.656,0 -10.169,-4.274 -10.169,-10.387c0,-6.077 3.478,-10.349 9.347,-10.349c5.573,0 8.676,3.61 8.676,9.024c0,0.551 0,1.105 -0.077,1.693l-13.085,-0.017Zm-0.14,-2.562l8.365,0c0,-2.981 -1.495,-4.494 -3.851,-4.494c-2.351,0 -4.085,1.505 -4.504,4.431l-0.01,0.063Z" style="fill:#00abed;fill-rule:nonzero;"/><path d="M125.678,56.218c-3.889,0 -5.721,-2.098 -5.721,-6.26l0,-10.128l-2.577,0l0,-3.756l2.577,0l0,-4.419l5.011,-1.437l0,5.856l3.776,0l0,3.756l-3.776,0l0,9.796c0,1.621 1.008,2.174 2.319,2.174c0.523,0 1.121,-0.149 1.457,-0.295l0,4.159c-0.598,0.296 -1.833,0.554 -3.066,0.554" style="fill:#00abed;fill-rule:nonzero;"/><path d="M141.555,39.978c-0.634,-0.184 -1.457,-0.295 -2.28,-0.295c-0.935,0 -1.905,0.148 -2.54,0.406l0,15.835l-5.086,0l0,-18.854c2.095,-0.811 4.973,-1.439 8.225,-1.439c1.047,0 1.944,0.074 2.618,0.186l-0.937,4.161Z" style="fill:#00abed;fill-rule:nonzero;"/><path d="M152.536,56.367c-5.872,0 -9.123,-4.458 -9.123,-10.387c0,-5.929 3.251,-10.349 9.123,-10.349c5.873,0 9.122,4.42 9.122,10.349c0,5.929 -3.249,10.387 -9.122,10.387m0,-16.795c-2.693,0 -4.038,2.394 -4.038,6.373c0,3.976 1.345,6.334 4.038,6.334c2.693,0 4.037,-2.358 4.037,-6.334c0,-3.979 -1.344,-6.373 -4.037,-6.373" style="fill:#00abed;fill-rule:nonzero;"/><path d="M172.79,56.144c-1.084,0 -2.284,-0.22 -2.917,-0.442l0,8.138l-5.087,0l0,-26.771c1.497,-0.774 4.338,-1.438 7.366,-1.438c6.507,0 10.061,3.83 10.061,10.276c0,6.112 -3.252,10.237 -9.423,10.237m-0.562,-16.61c-0.933,0 -1.906,0.185 -2.355,0.407l0,12.007c0.409,0.182 1.497,0.368 2.392,0.368c3.179,0 4.825,-2.653 4.825,-6.409c0,-4.014 -1.723,-6.373 -4.862,-6.373" style="fill:#00abed;fill-rule:nonzero;"/><path d="M193.75,56.367c-5.868,0 -9.121,-4.458 -9.121,-10.387c0,-5.929 3.253,-10.349 9.121,-10.349c5.872,0 9.121,4.42 9.121,10.349c0,5.929 -3.249,10.387 -9.121,10.387m0,-16.795c-2.692,0 -4.04,2.394 -4.04,6.373c0,3.976 1.348,6.334 4.04,6.334c2.692,0 4.037,-2.358 4.037,-6.334c0,-3.979 -1.345,-6.373 -4.037,-6.373" style="fill:#00abed;fill-rule:nonzero;"/><rect x="206.079" y="27.014" width="5.083" height="28.911" style="fill:#00abed;"/><path d="M217.692,32.908c-1.607,0 -2.915,-1.217 -2.915,-2.727c0,-1.508 1.308,-2.688 2.915,-2.688c1.61,0 2.917,1.18 2.917,2.688c0,1.51 -1.307,2.727 -2.917,2.727m-2.541,3.167l5.083,0l0,19.849l-5.083,0l0,-19.849Z" style="fill:#00abed;fill-rule:nonzero;"/><path d="M231.214,56.218c-3.888,0 -5.722,-2.098 -5.722,-6.26l0,-10.128l-2.581,0l0,-3.756l2.581,0l0,-4.419l5.013,-1.437l0,5.856l3.776,0l0,3.756l-3.776,0l0,9.796c0,1.621 1.01,2.174 2.319,2.174c0.523,0 1.12,-0.149 1.457,-0.295l0,4.159c-0.597,0.296 -1.832,0.554 -3.067,0.554" style="fill:#00abed;fill-rule:nonzero;"/><path d="M269.263,55.925l0,-13.074c0,-1.99 -1.236,-3.204 -3.554,-3.204c-1.199,0 -2.356,0.22 -3.03,0.48l0,15.798l-5.084,0l0,-18.855c2.132,-0.849 4.71,-1.438 8.04,-1.438c5.983,0 8.749,2.431 8.749,6.705l0,13.588l-5.121,0Z" style="fill:#00abed;fill-rule:nonzero;"/><path d="M286.635,56.367c-5.871,0 -9.123,-4.458 -9.123,-10.387c0,-5.929 3.252,-10.349 9.123,-10.349c5.869,0 9.124,4.42 9.124,10.349c0,5.929 -3.255,10.387 -9.124,10.387m0,-16.795c-2.691,0 -4.038,2.394 -4.038,6.373c0,3.976 1.347,6.334 4.038,6.334c2.693,0 4.038,-2.358 4.038,-6.334c0,-3.979 -1.345,-6.373 -4.038,-6.373" style="fill:#00abed;fill-rule:nonzero;"/><path d="M78.508,22.419l0,-7.885l-5.753,0l0,7.885l-3.653,0l0,-18.474l3.653,0l0,7.63l5.753,0l0,-7.63l3.653,0l0,18.474l-3.653,0Z" style="fill:#00abed;fill-rule:nonzero;"/><path d="M91.307,22.724c-4.067,0 -6.32,-3.086 -6.32,-7.194c0,-4.108 2.253,-7.171 6.32,-7.171c4.069,0 6.323,3.063 6.323,7.171c0,4.108 -2.254,7.194 -6.323,7.194m0,-11.635c-1.864,0 -2.798,1.659 -2.798,4.414c0,2.758 0.934,4.391 2.798,4.391c1.867,0 2.8,-1.633 2.8,-4.391c0,-2.755 -0.933,-4.414 -2.8,-4.414" style="fill:#00abed;fill-rule:nonzero;"/><path d="M104.032,22.724c-1.737,0 -3.473,-0.459 -4.511,-0.995l1.142,-2.653c0.7,0.435 2.253,0.894 3.265,0.894c1.269,0 2.099,-0.588 2.099,-1.507c0,-1.022 -0.907,-1.454 -2.152,-1.887c-1.763,-0.639 -3.99,-1.456 -3.99,-4.16c0,-2.423 1.865,-4.057 5.129,-4.057c1.788,0 3.239,0.434 4.303,0.995l-1.089,2.373c-0.595,-0.357 -1.839,-0.791 -2.773,-0.791c-1.242,0 -1.967,0.614 -1.967,1.43c0,1.044 0.905,1.455 2.123,1.888c1.838,0.662 4.093,1.428 4.093,4.209c0,2.577 -1.942,4.261 -5.672,4.261" style="fill:#00abed;fill-rule:nonzero;"/><path d="M117.842,22.57c-0.751,0 -1.581,-0.151 -2.021,-0.305l0,5.64l-3.524,0l0,-18.55c1.036,-0.535 3.005,-0.995 5.106,-0.995c4.507,0 6.968,2.652 6.968,7.119c0,4.236 -2.253,7.091 -6.529,7.091m-0.391,-11.507c-0.645,0 -1.317,0.13 -1.63,0.284l0,8.317c0.285,0.128 1.037,0.254 1.659,0.254c2.202,0 3.341,-1.837 3.341,-4.439c0,-2.782 -1.19,-4.416 -3.37,-4.416" style="fill:#00abed;fill-rule:nonzero;"/><path d="M128.854,6.471c-1.112,0 -2.021,-0.843 -2.021,-1.887c0,-1.047 0.909,-1.864 2.021,-1.864c1.116,0 2.021,0.817 2.021,1.864c0,1.044 -0.905,1.887 -2.021,1.887m-1.761,2.195l3.524,0l0,13.753l-3.524,0l0,-13.753Z" style="fill:#00abed;fill-rule:nonzero;"/><path d="M138.728,22.623c-2.696,0 -3.966,-1.456 -3.966,-4.337l0,-7.018l-1.787,0l0,-2.602l1.787,0l0,-3.063l3.473,-0.995l0,4.058l2.617,0l0,2.602l-2.617,0l0,6.787c0,1.123 0.7,1.506 1.605,1.506c0.363,0 0.779,-0.104 1.012,-0.205l0,2.883c-0.415,0.204 -1.27,0.384 -2.124,0.384" style="fill:#00abed;fill-rule:nonzero;"/><rect x="157.561" y="2.389" width="3.522" height="20.03" style="fill:#00abed;"/><path d="M41.21,16.997c-4.41,0 -7.581,2.215 -10.103,4.115c1.645,1.862 2.695,4.385 2.895,7.634c0.912,-1.478 2.391,-2.473 4.398,-2.473c3.587,0 5.481,3.163 5.481,6.611l0,17.356c0,3.164 2.251,5.695 5.484,5.695c3.232,0 5.483,-2.531 5.483,-5.695l0,-20.313c0,-8.996 -6.044,-12.93 -13.638,-12.93" style="fill:#006fb9;fill-rule:nonzero;"/><path d="M34.003,28.747c-0.2,-3.249 -1.251,-5.773 -2.895,-7.634c-2.488,-2.814 -6.337,-4.115 -10.699,-4.115l-9.424,0l0.006,-2.086l0,-9.202c0,-3.163 -2.249,-5.689 -5.481,-5.689c-3.232,0 -5.482,2.526 -5.482,5.689l0,44.531c0,3.163 2.25,5.695 5.482,5.695c3.232,0 5.481,-2.532 5.481,-5.695l-0.006,-22.333l6.05,0c3.797,0 6.046,2.811 6.046,6.607l0,15.726c0,2.975 1.99,5.388 4.92,5.665c0.183,0.015 0.373,0.03 0.562,0.03c3.232,0 5.481,-2.532 5.481,-5.695l0,-20.314c0,-0.404 -0.015,-0.797 -0.041,-1.18" style="fill:#00abed;fill-rule:nonzero;"/><rect x="-53.748" y="-76.364" width="1919.85" height="237.727" style="fill:none;stroke:#a4abb6;stroke-width:0.25px;"/></g></g></svg>
