<svg xmlns="http://www.w3.org/2000/svg" width="24" height="24" viewBox="0 0 24 24">
  <g id="Group_8772" data-name="Group 8772" transform="translate(-274 -203)">
    <rect id="Rectangle_4105" data-name="Rectangle 4105" width="24" height="24" transform="translate(274 203)" fill="#f4f5f7" opacity="0"/>
    <g id="search" transform="translate(277.072 206.072)">
      <path id="Path_1675" data-name="Path 1675" d="M3.957,144.237l-.622,2.32-2.272.048A8.944,8.944,0,0,1,1,138.268H1l2.023.371.886,2.01a5.329,5.329,0,0,0,.05,3.588Z" transform="translate(0 -133.446)" fill="#fbbb00"/>
      <path id="Path_1676" data-name="Path 1676" d="M270.2,208.176a8.925,8.925,0,0,1-3.183,8.631h0l-2.548-.13-.361-2.251a5.321,5.321,0,0,0,2.289-2.717h-4.774v-3.532H270.2Z" transform="translate(-252.503 -200.915)" fill="#518ef8"/>
      <path id="Path_1677" data-name="Path 1677" d="M43.963,314.509h0a8.931,8.931,0,0,1-13.454-2.732l2.893-2.368a5.31,5.31,0,0,0,7.652,2.719Z" transform="translate(-29.445 -298.618)" fill="#28b446"/>
      <path id="Path_1678" data-name="Path 1678" d="M42.253,2.056,39.361,4.424A5.309,5.309,0,0,0,31.533,7.2L28.624,4.822h0A8.93,8.93,0,0,1,42.253,2.056Z" transform="translate(-27.626)" fill="#f14336"/>
    </g>
  </g>
</svg>
