<svg id="Group_8310" data-name="Group 8310" xmlns="http://www.w3.org/2000/svg" width="24" height="24" viewBox="0 0 24 24">
  <path id="Path_1845" data-name="Path 1845" d="M0,0H24V24H0Z" fill="none"/>
  <path id="Path_1846" data-name="Path 1846" d="M22.162,5.656a8.384,8.384,0,0,1-2.4.658A4.2,4.2,0,0,0,21.6,4a8.358,8.358,0,0,1-2.656,1.015,4.182,4.182,0,0,0-7.126,3.814A11.874,11.874,0,0,1,3.2,4.459a4.188,4.188,0,0,0,1.294,5.584A4.168,4.168,0,0,1,2.6,9.52v.052a4.185,4.185,0,0,0,3.354,4.1,4.21,4.21,0,0,1-1.889.072A4.185,4.185,0,0,0,7.97,16.65a8.394,8.394,0,0,1-6.191,1.732,11.83,11.83,0,0,0,6.41,1.88,11.819,11.819,0,0,0,11.9-11.9c0-.18,0-.362-.013-.54a8.5,8.5,0,0,0,2.087-2.165Z" fill="#1da1f2"/>
</svg>
