<svg id="Group_6405" data-name="Group 6405" xmlns="http://www.w3.org/2000/svg" width="56.518" height="18.451" viewBox="0 0 56.518 18.451">
  <path id="Path_1767" data-name="Path 1767" d="M8.44,1.523c3.765,0,6.763-2.282,6.763-6.551V-16.266H11.785V-5.273c0,2.282-1.263,3.484-3.344,3.484-2.031,0-3.32-1.2-3.32-3.484V-16.266H1.7V-5.028C1.7-.759,4.7,1.523,8.44,1.523ZM21.966-5.813a2.281,2.281,0,0,1,2.279-2.5,2.131,2.131,0,0,1,2.254,2.4V1.131h3.295V-6.476c0-2.65-1.387-4.785-4.41-4.785a4.061,4.061,0,0,0-3.518,1.816v-1.5h-3.2V1.131h3.295ZM36.434,1.131V-10.941H33.139V1.131ZM32.742-14.891A2.026,2.026,0,0,0,34.774-12.9a2.01,2.01,0,0,0,2.031-1.987,2.02,2.02,0,0,0-2.031-2.037A2.036,2.036,0,0,0,32.742-14.891Zm12.684,6.6a2.653,2.653,0,0,1,2.7,2.037l2.948-.981a5.572,5.572,0,0,0-5.723-4.073,6.21,6.21,0,0,0-6.317,6.4,6.276,6.276,0,0,0,6.416,6.4,5.651,5.651,0,0,0,5.7-4.073l-2.9-.957a2.785,2.785,0,0,1-2.8,2.037,3.121,3.121,0,0,1-3.121-3.411A3.082,3.082,0,0,1,45.426-8.291Z" transform="translate(-1.702 16.928)" fill="#b3b1c3"/>
  <path id="Path_1768" data-name="Path 1768" d="M1.472-1.932A2.1,2.1,0,0,0,3.565.161,2.106,2.106,0,0,0,5.681-1.932,2.106,2.106,0,0,0,3.565-4.025,2.1,2.1,0,0,0,1.472-1.932Z" transform="translate(50.837 18.083)" fill="#b3b1c3"/>
</svg>
